<?xml version="1.0" encoding="UTF-8"?>
<svg width="400" height="400" viewBox="0 0 400 400" xmlns="http://www.w3.org/2000/svg">
    <style>
        .logo-bg { fill: none; }
        .logo-circle { 
            fill: none; 
            stroke: #00E5FF;
            stroke-width: 8;
        }
        .science-icon {
            fill: none;
            stroke: #00E5FF;
            stroke-width: 2;
        }
        .accent-icon {
            fill: none;
            stroke: #FF9F1C;
            stroke-width: 3;
        }
        .logo-text {
            fill: #FFFFFF;
            font-family: 'Arial', sans-serif;
            font-weight: bold;
        }
    </style>

    <!-- Main Trefoil Shape -->
    <path class="logo-circle" d="
        M200,100 
        A100,100 0 1,1 130,270 
        A100,100 0 1,1 270,270 
        A100,100 0 1,1 200,100
        " />

    <!-- Scientific Symbols -->
    <!-- Math Symbol -->
    <g class="science-icon" transform="translate(160,80)">
        <path d="M0,0 L30,0 M15,0 L15,30" />
        <path d="M5,15 L25,15" />
    </g>

    <!-- Chemistry Beaker -->
    <g class="science-icon" transform="translate(250,200)">
        <path d="M-10,-20 L-10,10 Q-10,20 0,20 L10,20 Q20,20 20,10 L20,-20" />
        <path d="M-5,0 L15,0" style="stroke-dasharray: 2,2" />
    </g>

    <!-- DNA Helix -->
    <g class="science-icon" transform="translate(130,200)">
        <path d="M-10,-20 Q0,-10 10,-20 M-10,0 Q0,10 10,0 M-10,20 Q0,30 10,20" />
        <path d="M-10,-10 L10,-10 M-10,10 L10,10" />
    </g>

    <!-- Atom Symbol -->
    <g class="science-icon" transform="translate(200,200)">
        <circle cx="0" cy="0" r="10" />
        <ellipse cx="0" cy="0" rx="20" ry="10" transform="rotate(0)" />
        <ellipse cx="0" cy="0" rx="20" ry="10" transform="rotate(60)" />
        <ellipse cx="0" cy="0" rx="20" ry="10" transform="rotate(120)" />
    </g>

    <!-- Orange Accent Elements -->
    <g class="accent-icon">
        <path d="M320,100 Q330,110 320,120" />
        <path d="M80,100 Q70,110 80,120" />
        <path d="M200,350 L220,350 L210,370 Z" />
    </g>
</svg>