<?xml version="1.0" encoding="UTF-8"?>
<svg id="Layer_1" xmlns="http://www.w3.org/2000/svg" version="1.1" xmlns:xlink="http://www.w3.org/1999/xlink" viewBox="0 0 128.04 226.72">
  <!-- Generator: Adobe Illustrator 29.2.0, SVG Export Plug-In . SVG Version: 2.1.0 Build 108)  -->
  <defs>
    <style>
      .st0 {
        fill: #69a9e9;
      }

      .st0, .st1, .st2 {
        stroke-width: 2px;
      }

      .st0, .st1, .st2, .st3, .st4, .st5 {
        stroke: #3f3938;
        stroke-linecap: round;
        stroke-linejoin: round;
      }

      .st6 {
        stroke: #ad8231;
        stroke-miterlimit: 10;
      }

      .st6, .st2, .st5 {
        fill: none;
      }

      .st6, .st3, .st4, .st5 {
        stroke-width: 4px;
      }

      .st7 {
        fill: #f5f0ec;
      }

      .st1, .st3 {
        fill: #ad8231;
      }

      .st8, .st4 {
        fill: #3f3938;
      }

      .st9 {
        clip-path: url(#clippath);
      }
    </style>
    <clipPath id="clippath">
      <path class="st4" d="M64.02,2c-34.11,0-62.02,27.91-62.02,62.02v99.25c2.71,81.91,121.32,81.95,124.04,0,0,0,0-99.25,0-99.25,0-34.11-27.91-62.02-62.02-62.02Z"/>
    </clipPath>
  </defs>
  <g>
    <path class="st8" d="M64.02,2c-34.11,0-62.02,27.91-62.02,62.02v99.25c2.71,81.91,121.32,81.95,124.04,0,0,0,0-99.25,0-99.25,0-34.11-27.91-62.02-62.02-62.02Z"/>
    <g class="st9">
      <g>
        <path class="st3" d="M125.85,57.91v14.47H2.19c.03-2.65-.1-15.57.11-17.94h123.44c.07,1.15.11,2.31.11,3.47Z"/>
        <g>
          <g>
            <path class="st3" d="M85.74,29.13c.02,5.22-4.22,8.89-6.09,13.48-4.78,9.75-8.09,19.17-8.99,28.02h-13.27c-.9-8.85-4.21-18.27-8.99-28.02-2.48-5.65-8.15-10.48-5.38-17.24,1.94-5.21,7.72-8.44,13.11-6.96,6.24,1.92,12.54.53,18.78-.35,5.78.03,10.85,5.34,10.83,11.07Z"/>
            <g>
              <rect class="st3" x="57.39" y="26.46" width="13.16" height="44.17"/>
              <g>
                <line class="st3" x1="57.39" y1="38.54" x2="70.55" y2="38.54"/>
                <line class="st3" x1="57.39" y1="50.98" x2="70.55" y2="50.98"/>
                <line class="st3" x1="57.39" y1="63.41" x2="70.55" y2="63.41"/>
              </g>
            </g>
            <path class="st3" d="M75.08,20.19c0,6.09-4.92,11.03-11,11.06-7.63.19-13.28-8.09-10.35-15.1.48-1.22,1.83-1.91,3.1-1.58,4.71,1.21,9.7,1.21,14.4,0,3.16-.67,3.83,3.22,3.85,5.62Z"/>
          </g>
          <g>
            <path class="st8" d="M60.43,22.5c1.54,2.99-.7,4.15-2.25,1.17-1.54-2.99.7-4.15,2.25-1.17Z"/>
            <path class="st8" d="M67.62,22.5c-1.54,2.99.7,4.15,2.25,1.17,1.54-2.99-.7-4.15-2.25-1.17Z"/>
          </g>
        </g>
        <line class="st0" x1="115.1" y1="63.64" x2="100.77" y2="61.47"/>
        <polyline class="st2" points="100.77 61.47 90.95 66.58 82.18 63.64"/>
        <path class="st1" d="M84.71,63.64c-.01,3.31-5.05,3.31-5.06,0,.01-3.31,5.05-3.31,5.06,0Z"/>
        <path class="st1" d="M103.3,61.47c-.01,3.31-5.05,3.31-5.06,0,.01-3.31,5.05-3.31,5.06,0Z"/>
        <path class="st1" d="M118.38,63.64c-.07,4.31-6.49,4.31-6.56,0,.07-4.31,6.49-4.31,6.56,0Z"/>
        <line class="st0" x1="13.54" y1="63.64" x2="27.87" y2="61.47"/>
        <polyline class="st2" points="27.87 61.47 37.69 66.58 46.46 63.64"/>
        <path class="st1" d="M43.93,63.64c.01,3.31,5.05,3.31,5.06,0-.01-3.31-5.05-3.31-5.06,0Z"/>
        <path class="st1" d="M25.34,61.47c.01,3.31,5.05,3.31,5.06,0-.01-3.31-5.05-3.31-5.06,0Z"/>
        <path class="st1" d="M10.26,63.64c.07,4.31,6.49,4.31,6.56,0-.07-4.31-6.49-4.31-6.56,0Z"/>
      </g>
      <path class="st3" d="M126.4,109.38v52.52c0,34.25-27.77,62.02-62.03,62.02S2.36,196.16,2.36,161.91v-53.35c3.81-1.18,7.42-2.58,10.81-4.26.09,2.43-.08,55.29.01,57.99.7,27.42,23.14,49.42,50.72,49.42s50.01-22,50.72-49.42c.44-1.75-.29-55.56.01-57.1,3.68,1.69,7.62,3.05,11.78,4.2Z"/>
    </g>
    <path class="st5" d="M64.02,2c-34.11,0-62.02,27.91-62.02,62.02v99.25c2.71,81.91,121.32,81.95,124.04,0,0,0,0-99.25,0-99.25,0-34.11-27.91-62.02-62.02-62.02Z"/>
  </g>
  <line class="st6" x1="64.02" y1="76.98" x2="64.02" y2="220.79"/>
  <line class="st6" x1="120.51" y1="136.19" x2="6.4" y2="136.19"/>
  <g>
    <path class="st7" d="M34.15,91.57l2.92,1.81c5.95-4.8,19.5-9.22,15.78,3.65,5.73,2.56,1.6,10.52-3.8,7.3l-.44.66c10.45,14.48,2.82,21.96-11.6,11.55l-1.59,1.11c2.26,5.11-4.95,8.46-7.46,3.5-11.91,2.43-6.73-10.97-2.49-16.16-3.58-4.5-9.38-17.19,1.04-16.48,2.13-5.13,9.47-2.15,7.65,3.06ZM26.19,89.78c-8.52-.61-2.65,10.95.12,14.08,2.77-3.62,6.02-6.85,9.63-9.63l-2.48-1.59c-2.59,2.97-7.42,1.07-7.27-2.85ZM51.59,96.85c3.68-11.31-8.67-6.57-13.44-2.63,3.5,2.85,6.86,5.96,9.52,9.63.13.09.47-.38.46-.5-1.91-2.62.13-6.67,3.47-6.51ZM36.95,95.06c-3.7,2.67-7.07,6.24-9.88,9.87,2.75,3.83,6.18,7.15,9.94,9.99,3.77-2.79,7.16-6.15,9.93-9.93-2.78-3.66-6.14-7.46-9.99-9.92ZM26.35,106.06l-.16.05c-3.13,4.07-8.72,16.16,1.41,13.78-.27-3.83,4.3-6.08,7.06-3.3l1.29-.9c-3.6-2.76-6.91-5.97-9.59-9.63ZM38.15,115.81c13.09,9.05,18.69,3.23,9.67-9.75-2.77,3.64-6.33,6.8-9.67,9.75Z"/>
    <path class="st7" d="M36.49,100.72c4.27-.44,6.53,4.79,3.24,7.55-6.05,4.2-10.43-6.07-3.24-7.55Z"/>
  </g>
  <path class="st7" d="M100.17,117.72c-9.26.42-5.82-19.63-5.61-25.7h-7.7c.22,5.08.22,10.17.46,15.25.09,3.46.48,9.38-3.7,10.19-3.72-.65-3.37-3.9-1.33-7.64,2.6-5.05,2.38-11.65,1.82-17.06-1.2-2.25-6.81.13-8.96.99,2.99-4.57,5.33-7.08,11.29-6.4,6.05,0,13.67-.1,19.27.08,1.77.83,1.48,3.37.4,4.19-2.01,1.24-6.05-.48-8.11.85-1.14,6.3-3.04,16.3,1.66,20.89,2.27,1.76,6.37.41,7.05-2.47,1.03,3.87-3.06,6.91-6.53,6.83Z"/>
  <path class="st7" d="M104.8,148.3c6.85,1.37,3.51,11.17-2.75,8.13l-6.57,6.64c.55.79.91,1.69,1.08,2.64h3.57c2.17-6.74,11.76-1.81,7.56,3.88-2.31,2.71-6.7,1.74-7.53-1.7h-3.61c-.47,2.73-2.6,4.83-5.29,5.39v2.55c3.42.93,4.32,5.35,1.56,7.6-5.79,4.07-10.47-5.63-3.72-7.63v-2.55c-.99-.15-1.92-.52-2.73-1.08l-6.57,6.57c3.05,6.25-6.75,9.63-8.13,2.75-.49-3.45,3.61-6.1,6.58-4.3l6.5-6.59c-1.55-2.29-1.55-5.29,0-7.57l-3.3-3.29c-5.41,2.76-9.49-5.23-3.95-7.81,3.89-1.63,7.55,2.6,5.46,6.17l3.36,3.35c2.3-1.55,5.27-1.54,7.57,0l6.59-6.57c-1.83-3,.85-7.07,4.3-6.58Z"/>
  <path class="st7" d="M39.71,160.11l5.28,5.32c.21-1.23.1-2.47.04-3.72,1.5.12,2.96.62,4.48.51.94,10.77-6.51,16.34-16.76,15.11-2.53-.32-4.97-1.17-7.47-.17l2.66,2.7.52-1.86,4.34.6c-.39,1.75-.81,3.68-1.56,5.32-1.89,3.47-5.7.45-3.77-2.5l-3.61-3.7c-1.41.56-3.21.94-3.95-.78-.53-1.24.07-2.4,1.22-2.96,1.72-.85,5.53-1.87,7.42-1.78,2.96.33,5.97,1.12,8.99.76l-5.28-5.32c-.2,1.23-.12,2.48-.04,3.72-1.5-.14-2.96-.6-4.48-.51-.92-11.14,6.85-16.53,17.34-15.02,2.32.44,4.63.95,6.89.07l-2.66-2.7-.47,1.85-4.39-.59c.66-2.21.71-5.33,2.85-6.65,1.81-.68,3.42.91,2.92,2.75-.09.33-.54,1.07-.37,1.33l3.47,3.46c1.39-.39,3.16-1.05,4,.72,1.27,2.75-2.63,3.67-4.51,4.17-4.82,1.44-8.28-.69-13.09-.13ZM37.84,160.47c-.69.15-2.56.88-2.85,1.45l8.3,8.24c.46-.4,1.58-2.65,1.36-3.12l-6.5-6.51c-.1-.1-.2-.08-.32-.06ZM33.94,162.9c-.35.21-1.66,2.65-1.32,3.17,0,0,6.51,6.5,6.51,6.5.87.08,2.53-.8,3.12-1.36l-8.3-8.3Z"/>
</svg>