<?xml version="1.0" encoding="UTF-8"?>
<svg width="100" height="100" viewBox="0 0 100 100" xmlns="http://www.w3.org/2000/svg">
    <!-- Ankh Symbol -->
    <path d="M50 10 
             C40 10, 30 20, 30 30
             C30 40, 40 50, 50 50
             C60 50, 70 40, 70 30
             C70 20, 60 10, 50 10
             M50 50 L50 90" 
          fill="none" 
          stroke="#ad8231" 
          stroke-width="2"/>
    
    <!-- Decorative Circles -->
    <circle cx="50" cy="30" r="5" fill="#ad8231" opacity="0.5"/>
    <circle cx="30" cy="50" r="3" fill="#ad8231" opacity="0.3"/>
    <circle cx="70" cy="50" r="3" fill="#ad8231" opacity="0.3"/>
    
    <!-- Corner Pattern -->
    <path d="M0 0 L40 0 L40 5 L5 5 L5 40 L0 40 Z" 
          fill="#ad8231" 
          opacity="0.5"/>
    
    <!-- Hieroglyphic Details -->
    <path d="M15 15 L25 15 L20 25 Z" 
          fill="#ad8231" 
          opacity="0.7"/>
    <path d="M75 75 L85 75 L80 85 Z" 
          fill="#ad8231" 
          opacity="0.7"/>
</svg> 