<?xml version="1.0" encoding="UTF-8"?>
<svg id="Layer_1" xmlns="http://www.w3.org/2000/svg" version="1.1" xmlns:xlink="http://www.w3.org/1999/xlink" viewBox="0 0 549.95 238.06">
  <!-- Generator: Adobe Illustrator 29.2.0, SVG Export Plug-In . SVG Version: 2.1.0 Build 108)  -->
  <defs>
    <style>
      .st0 {
        stroke: #ad8231;
        stroke-miterlimit: 10;
      }

      .st0, .st1, .st2, .st3 {
        fill: none;
      }

      .st0, .st4, .st3 {
        stroke-width: 4px;
      }

      .st5 {
        fill: #f5f0ec;
      }

      .st6, .st2 {
        stroke-width: 2px;
      }

      .st6, .st2, .st4, .st3 {
        stroke: #3f3938;
        stroke-linecap: round;
        stroke-linejoin: round;
      }

      .st6, .st4, .st7 {
        fill: #ad8231;
      }

      .st8 {
        isolation: isolate;
      }

      .st9 {
        fill: #3f3938;
      }

      .st10 {
        clip-path: url(#clippath);
      }
    </style>
    <clipPath id="clippath">
      <path class="st1" d="M64.02,10.43C29.91,10.43,2,38.34,2,72.45v99.25c2.71,81.91,121.32,81.95,124.04,0v-99.25c0-34.11-27.91-62.02-62.02-62.02Z"/>
    </clipPath>
  </defs>
  <g class="st8">
    <g class="st8">
      <path class="st7" d="M176.95,169.93v-105.64h47.77v20.98h-25.89v20.56h25.89v20.15h-25.89v22.85h26.24v21.11h-48.11Z"/>
      <path class="st7" d="M295.74,62.34c5.03.05,9.87.72,14.5,2.01,4.64,1.29,8.98,3.1,13.01,5.43,4.04,2.33,7.72,5.12,11.04,8.38,3.32,3.25,6.18,6.85,8.58,10.8,2.4,3.95,4.28,8.2,5.64,12.77,1.36,4.57,2.11,9.35,2.25,14.33.09,5.12-.48,10.06-1.73,14.81-1.25,4.75-3.06,9.22-5.43,13.4-2.38,4.18-5.26,8-8.65,11.46-3.39,3.46-7.15,6.44-11.28,8.93-4.13,2.49-8.56,4.43-13.29,5.82-4.73,1.38-9.66,2.1-14.78,2.15-5.08.04-9.97-.59-14.68-1.9-4.71-1.32-9.13-3.16-13.26-5.54-4.13-2.38-7.9-5.24-11.32-8.58-3.42-3.35-6.35-7.05-8.79-11.11-2.45-4.06-4.36-8.43-5.75-13.12-1.38-4.68-2.08-9.56-2.08-14.64-.05-5.08.61-9.98,1.97-14.71,1.36-4.73,3.28-9.15,5.75-13.26,2.47-4.11,5.42-7.86,8.86-11.25,3.44-3.39,7.25-6.3,11.42-8.72,4.18-2.42,8.63-4.28,13.36-5.57,4.73-1.29,9.61-1.92,14.64-1.87ZM295.6,83.18c-4.66,0-9.07.87-13.22,2.6s-7.81,4.11-10.97,7.13c-3.16,3.02-5.68,6.57-7.55,10.63-1.87,4.06-2.87,8.42-3.01,13.08-.09,3.32.27,6.5,1.07,9.52.81,3.02,1.98,5.85,3.53,8.48,1.55,2.63,3.4,5.01,5.57,7.13,2.17,2.12,4.57,3.93,7.2,5.43,2.63,1.5,5.44,2.65,8.45,3.46,3,.81,6.12,1.19,9.35,1.14,3.14-.05,6.17-.51,9.1-1.38,2.93-.88,5.67-2.09,8.2-3.63,2.54-1.55,4.85-3.39,6.92-5.54,2.08-2.15,3.84-4.51,5.3-7.1,1.45-2.58,2.56-5.34,3.32-8.27.76-2.93,1.12-5.96,1.07-9.1-.09-4.66-1.05-9.03-2.87-13.12-1.82-4.08-4.28-7.64-7.37-10.66-3.09-3.02-6.71-5.41-10.83-7.17-4.13-1.75-8.55-2.63-13.26-2.63Z"/>
      <path class="st7" d="M440.08,87.41s-.35-.16-1.18-.62c-.83-.46-2.02-.98-3.57-1.56-1.55-.58-3.37-1.11-5.47-1.59-2.1-.49-4.37-.73-6.82-.73-4.39,0-8.65.88-12.81,2.63-4.15,1.75-7.86,4.17-11.11,7.23-3.25,3.07-5.87,6.68-7.86,10.83-1.98,4.15-2.98,8.63-2.98,13.43.05,4.94,1.01,9.52,2.91,13.74,1.89,4.22,4.43,7.88,7.62,10.97,3.18,3.09,6.9,5.52,11.15,7.27,4.25,1.75,8.75,2.63,13.5,2.63,2.12,0,4.21-.24,6.27-.73,2.05-.49,3.9-1.01,5.54-1.59,1.64-.58,2.96-1.12,3.98-1.63,1.01-.51,1.57-.81,1.66-.9v22.43s-.53.22-1.45.52c-.92.3-2.18.65-3.77,1.04-1.59.39-3.47.74-5.64,1.04-2.17.3-4.5.47-6.99.52-5.08.05-10.02-.61-14.82-1.97-4.8-1.36-9.31-3.28-13.53-5.75-4.22-2.47-8.06-5.43-11.53-8.9-3.46-3.46-6.43-7.26-8.9-11.39-2.47-4.13-4.37-8.53-5.71-13.19-1.34-4.66-1.94-9.46-1.8-14.4.09-5.03.84-9.85,2.25-14.47,1.41-4.61,3.32-8.91,5.75-12.88,2.42-3.97,5.32-7.59,8.69-10.87,3.37-3.28,7.08-6.09,11.15-8.45,4.06-2.35,8.42-4.2,13.08-5.54,4.66-1.34,9.51-2.08,14.54-2.21,1.71-.05,3.6.06,5.68.31,2.08.25,4.02.52,5.82.8,1.8.28,3.3.54,4.5.8,1.2.25,1.82.36,1.87.31v22.85Z"/>
      <path class="st7" d="M500.87,89c-.65-2.35-1.82-4.23-3.53-5.64-1.71-1.41-3.78-2.18-6.23-2.32-1.57-.09-3.06.12-4.46.62-1.41.51-2.65,1.24-3.74,2.18-1.08.95-1.96,2.08-2.63,3.39-.67,1.32-1.03,2.73-1.07,4.26-.05,1.15.14,2.31.55,3.46.42,1.15.99,2.24,1.73,3.25.74,1.02,1.64,1.92,2.7,2.7,1.06.79,2.24,1.38,3.53,1.8l11.91,4.01c3.74,1.25,7.13,2.94,10.18,5.09,3.05,2.15,5.62,4.62,7.72,7.41,2.1,2.79,3.7,5.84,4.81,9.14,1.11,3.3,1.61,6.7,1.52,10.21-.09,4.62-.98,8.96-2.67,13.05-1.69,4.08-3.96,7.67-6.82,10.76-2.86,3.09-6.25,5.55-10.18,7.37-3.92,1.82-8.19,2.78-12.81,2.87-4.39.09-8.29-.47-11.7-1.7-3.42-1.22-6.39-2.8-8.93-4.74-2.54-1.94-4.69-4.07-6.44-6.4-1.75-2.33-3.16-4.58-4.22-6.75-1.06-2.17-1.83-4.08-2.32-5.75s-.7-2.77-.66-3.32l20.42-5.82c-.14,1.89.15,3.7.87,5.43.71,1.73,1.7,3.24,2.94,4.54s2.71,2.32,4.4,3.08,3.47,1.1,5.37,1c1.8-.04,3.46-.45,4.98-1.21,1.52-.76,2.84-1.77,3.95-3.01s1.97-2.68,2.6-4.29c.62-1.62.94-3.32.94-5.12.04-1.89-.29-3.55-1-4.98-.72-1.43-1.7-2.69-2.94-3.77-1.25-1.08-2.72-2.04-4.43-2.87-1.71-.83-3.53-1.61-5.47-2.35l-9.83-3.88c-3.74-1.43-6.93-3.28-9.59-5.54-2.65-2.26-4.83-4.71-6.54-7.34-1.71-2.63-2.93-5.38-3.67-8.24-.74-2.86-1.04-5.65-.9-8.38.23-4.2,1.2-8.16,2.91-11.87,1.71-3.71,3.97-6.96,6.79-9.73,2.81-2.77,6.07-4.94,9.76-6.51,3.69-1.57,7.66-2.31,11.91-2.22,7.48.23,13.67,2.32,18.59,6.27s8.69,9.57,11.32,16.86l-19.59,4.98Z"/>
    </g>
  </g>
  <g>
    <g>
      <path class="st9" d="M64.02,10.43C29.91,10.43,2,38.34,2,72.45v99.25c2.71,81.91,121.32,81.95,124.04,0v-99.25c0-34.11-27.91-62.02-62.02-62.02Z"/>
      <g class="st10">
        <g>
          <g>
            <path class="st4" d="M125.85,66.34v14.47H2.19c.03-2.65-.1-15.57.11-17.94h123.44c.07,1.15.11,2.31.11,3.47Z"/>
            <g>
              <g>
                <path class="st4" d="M85.74,37.56c.02,5.22-4.22,8.89-6.09,13.48-4.78,9.75-8.09,19.17-8.99,28.02h-13.27c-.9-8.85-4.21-18.27-8.99-28.02-2.48-5.65-8.15-10.48-5.38-17.24,1.94-5.21,7.72-8.44,13.11-6.96,6.24,1.92,12.54.53,18.78-.35,5.78.03,10.85,5.34,10.83,11.07Z"/>
                <g>
                  <rect class="st4" x="57.39" y="34.89" width="13.16" height="44.17"/>
                  <g>
                    <line class="st3" x1="57.39" y1="46.98" x2="70.55" y2="46.98"/>
                    <line class="st3" x1="57.39" y1="59.41" x2="70.55" y2="59.41"/>
                    <line class="st3" x1="57.39" y1="71.84" x2="70.55" y2="71.84"/>
                  </g>
                </g>
                <path class="st4" d="M75.08,28.63c0,6.09-4.92,11.03-11,11.06-7.63.19-13.28-8.09-10.35-15.1.48-1.22,1.83-1.91,3.1-1.58,4.71,1.21,9.7,1.21,14.4,0,3.16-.67,3.83,3.22,3.85,5.62Z"/>
              </g>
              <g>
                <path class="st9" d="M60.43,30.94c1.54,2.99-.7,4.15-2.25,1.17-1.54-2.99.7-4.15,2.25-1.17Z"/>
                <path class="st9" d="M67.62,30.94c-1.54,2.99.7,4.15,2.25,1.17,1.54-2.99-.7-4.15-2.25-1.17Z"/>
              </g>
            </g>
            <line class="st2" x1="115.1" y1="72.07" x2="100.77" y2="69.9"/>
            <polyline class="st2" points="100.77 69.9 90.95 75.01 82.18 72.07"/>
            <path class="st6" d="M84.71,72.07c-.01,3.31-5.05,3.31-5.06,0,.01-3.31,5.05-3.31,5.06,0Z"/>
            <path class="st6" d="M103.3,69.9c-.01,3.31-5.05,3.31-5.06,0,.01-3.31,5.05-3.31,5.06,0Z"/>
            <path class="st6" d="M118.38,72.07c-.07,4.31-6.49,4.31-6.56,0,.07-4.31,6.49-4.31,6.56,0Z"/>
            <line class="st2" x1="13.54" y1="72.07" x2="27.87" y2="69.9"/>
            <polyline class="st2" points="27.87 69.9 37.69 75.01 46.46 72.07"/>
            <path class="st6" d="M43.93,72.07c0,3.31,5.05,3.31,5.06,0,0-3.31-5.05-3.31-5.06,0Z"/>
            <path class="st6" d="M25.34,69.9c.01,3.31,5.05,3.31,5.06,0-.01-3.31-5.05-3.31-5.06,0Z"/>
            <path class="st6" d="M10.26,72.07c.07,4.31,6.49,4.31,6.56,0-.07-4.31-6.49-4.31-6.56,0Z"/>
          </g>
          <path class="st4" d="M126.4,117.82v52.52c0,34.25-27.77,62.02-62.03,62.02S2.36,204.59,2.36,170.34v-53.35c3.81-1.18,7.42-2.58,10.81-4.26.09,2.43-.08,55.29.01,57.99.7,27.42,23.14,49.42,50.72,49.42s50.01-22,50.72-49.42c.44-1.75-.29-55.56.01-57.1,3.68,1.69,7.62,3.05,11.78,4.2h-.01Z"/>
        </g>
      </g>
      <path class="st3" d="M64.02,10.43C29.91,10.43,2,38.34,2,72.45v99.25c2.71,81.91,121.32,81.95,124.04,0v-99.25c0-34.11-27.91-62.02-62.02-62.02Z"/>
    </g>
    <line class="st0" x1="64.02" y1="85.41" x2="64.02" y2="229.22"/>
    <line class="st0" x1="120.51" y1="144.62" x2="6.4" y2="144.62"/>
    <g>
      <path class="st5" d="M34.15,100.01l2.92,1.81c5.95-4.8,19.5-9.22,15.78,3.65,5.73,2.56,1.6,10.52-3.8,7.3l-.44.66c10.45,14.48,2.82,21.96-11.6,11.55l-1.59,1.11c2.26,5.11-4.95,8.46-7.46,3.5-11.91,2.43-6.73-10.97-2.49-16.16-3.58-4.5-9.38-17.19,1.04-16.48,2.13-5.13,9.47-2.15,7.65,3.06h-.01ZM26.19,98.21c-8.52-.61-2.65,10.95.12,14.08,2.77-3.62,6.02-6.85,9.63-9.63l-2.48-1.59c-2.59,2.97-7.42,1.07-7.27-2.85h0ZM51.59,105.28c3.68-11.31-8.67-6.57-13.44-2.63,3.5,2.85,6.86,5.96,9.52,9.63.13.09.47-.38.46-.5-1.91-2.62.13-6.67,3.47-6.51h-.01ZM36.95,103.49c-3.7,2.67-7.07,6.24-9.88,9.87,2.75,3.83,6.18,7.15,9.94,9.99,3.77-2.79,7.16-6.15,9.93-9.93-2.78-3.66-6.14-7.46-9.99-9.92h0ZM26.35,114.49l-.16.05c-3.13,4.07-8.72,16.16,1.41,13.78-.27-3.83,4.3-6.08,7.06-3.3l1.29-.9c-3.6-2.76-6.91-5.97-9.59-9.63h-.01ZM38.15,124.24c13.09,9.05,18.69,3.23,9.67-9.75-2.77,3.64-6.33,6.8-9.67,9.75Z"/>
      <path class="st5" d="M36.49,109.15c4.27-.44,6.53,4.79,3.24,7.55-6.05,4.2-10.43-6.07-3.24-7.55Z"/>
    </g>
    <path class="st5" d="M100.17,126.16c-9.26.42-5.82-19.63-5.61-25.7h-7.7c.22,5.08.22,10.17.46,15.25.09,3.46.48,9.38-3.7,10.19-3.72-.65-3.37-3.9-1.33-7.64,2.6-5.05,2.38-11.65,1.82-17.06-1.2-2.25-6.81.13-8.96.99,2.99-4.57,5.33-7.08,11.29-6.4,6.05,0,13.67-.1,19.27.08,1.77.83,1.48,3.37.4,4.19-2.01,1.24-6.05-.48-8.11.85-1.14,6.3-3.04,16.3,1.66,20.89,2.27,1.76,6.37.41,7.05-2.47,1.03,3.87-3.06,6.91-6.53,6.83h-.01Z"/>
    <path class="st5" d="M104.8,156.73c6.85,1.37,3.51,11.17-2.75,8.13l-6.57,6.64c.55.79.91,1.69,1.08,2.64h3.57c2.17-6.74,11.76-1.81,7.56,3.88-2.31,2.71-6.7,1.74-7.53-1.7h-3.61c-.47,2.73-2.6,4.83-5.29,5.39v2.55c3.42.93,4.32,5.35,1.56,7.6-5.79,4.07-10.47-5.63-3.72-7.63v-2.55c-.99-.15-1.92-.52-2.73-1.08l-6.57,6.57c3.05,6.25-6.75,9.63-8.13,2.75-.49-3.45,3.61-6.1,6.58-4.3l6.5-6.59c-1.55-2.29-1.55-5.29,0-7.57l-3.3-3.29c-5.41,2.76-9.49-5.23-3.95-7.81,3.89-1.63,7.55,2.6,5.46,6.17l3.36,3.35c2.3-1.55,5.27-1.54,7.57,0l6.59-6.57c-1.83-3,.85-7.07,4.3-6.58h.02Z"/>
    <path class="st5" d="M39.71,168.55l5.28,5.32c.21-1.23.1-2.47.04-3.72,1.5.12,2.96.62,4.48.51.94,10.77-6.51,16.34-16.76,15.11-2.53-.32-4.97-1.17-7.47-.17l2.66,2.7.52-1.86,4.34.6c-.39,1.75-.81,3.68-1.56,5.32-1.89,3.47-5.7.45-3.77-2.5l-3.61-3.7c-1.41.56-3.21.94-3.95-.78-.53-1.24.07-2.4,1.22-2.96,1.72-.85,5.53-1.87,7.42-1.78,2.96.33,5.97,1.12,8.99.76l-5.28-5.32c-.2,1.23-.12,2.48-.04,3.72-1.5-.14-2.96-.6-4.48-.51-.92-11.14,6.85-16.53,17.34-15.02,2.32.44,4.63.95,6.89.07l-2.66-2.7-.47,1.85-4.39-.59c.66-2.21.71-5.33,2.85-6.65,1.81-.68,3.42.91,2.92,2.75-.09.33-.54,1.07-.37,1.33l3.47,3.46c1.39-.39,3.16-1.05,4,.72,1.27,2.75-2.63,3.67-4.51,4.17-4.82,1.44-8.28-.69-13.09-.13h-.01ZM37.84,168.9c-.69.15-2.56.88-2.85,1.45l8.3,8.24c.46-.4,1.58-2.65,1.36-3.12l-6.5-6.51c-.1-.1-.2-.08-.32-.06h0ZM33.94,171.34c-.35.21-1.66,2.65-1.32,3.17l6.51,6.5c.87.08,2.53-.8,3.12-1.36l-8.3-8.3h0Z"/>
  </g>
</svg>